<svg width="31" height="25" viewBox="0 0 31 25" fill="none" xmlns="http://www.w3.org/2000/svg">
<path d="M5.10696 14.3003C2.29099 14.3003 0 16.5916 0 19.4072C0 22.2232 2.29099 24.5142 5.10696 24.5142C7.92267 24.5142 10.2139 22.2232 10.2139 19.4072C10.2139 16.5916 7.92261 14.3003 5.10696 14.3003ZM5.10696 22.7533C3.262 22.7533 1.76099 21.2522 1.76099 19.4073C1.76099 17.5627 3.262 16.0614 5.10696 16.0614C6.95173 16.0614 8.45287 17.5628 8.45287 19.4073C8.45287 21.2522 6.95167 22.7533 5.10696 22.7533ZM19.1359 15.0928C16.6844 15.0928 14.6894 17.0873 14.6894 19.5393C14.6894 21.9918 16.6844 23.9859 19.1359 23.9859C21.5876 23.9859 23.5825 21.9917 23.5825 19.5393C23.5825 17.0873 21.5879 15.0928 19.1359 15.0928ZM19.1359 22.225C17.6549 22.225 16.4503 21.02 16.4503 19.5393C16.4503 18.0589 17.6549 16.8537 19.1359 16.8537C20.617 16.8537 21.8215 18.0589 21.8215 19.5393C21.8215 21.0201 20.617 22.225 19.1359 22.225ZM30.8034 5.93264L30.0964 5.58561C30.0595 5.56739 30.0206 5.55607 29.9801 5.55123L28.0332 5.33488L27.4602 0.793697C27.4435 0.659939 27.3516 0.547489 27.2239 0.504055C27.096 0.461501 26.9546 0.494878 26.8601 0.590482L23.382 4.11905C23.3013 4.20127 23.2654 4.31786 23.2867 4.43201L23.379 4.91594L21.0297 5.58077L17.809 12.5987H17.4342V12.5402C17.4342 12.4188 17.4416 12.3026 17.4512 12.1884H17.0257L14.1255 3.73757C14.0459 3.4253 13.7649 3.20719 13.443 3.20719H5.92862C5.53985 3.20719 5.22419 3.52261 5.22419 3.91162V11.0259C4.98596 10.9812 4.74126 10.9554 4.49059 10.9554C2.30224 10.9554 0.528245 12.7292 0.528245 14.9176V16.2825C1.48373 14.6478 3.25282 13.5464 5.28302 13.5464C8.32558 13.5464 10.7924 16.0132 10.7924 19.0561C10.7924 19.4802 10.74 19.8916 10.6491 20.2888H14.0549C14.0025 20.0027 13.9713 19.7092 13.9713 19.4082C13.9713 17.2159 15.4333 15.3683 17.4345 14.7791V14.3599H18.9386L22.2917 7.05469L23.7084 6.65329L23.8859 7.59262C23.9038 7.68514 23.9576 7.76629 24.0353 7.81928C24.0937 7.85881 24.1621 7.87949 24.2319 7.87949C24.2546 7.87949 24.2777 7.87704 24.3007 7.8722L30.7168 6.59446C30.8647 6.56485 30.9774 6.44448 30.9971 6.29489C31.0167 6.14491 30.9389 5.99908 30.8034 5.93264ZM7.11233 11.9525C6.96223 11.819 6.80245 11.6973 6.63305 11.5883V4.61499H12.8949L15.5293 11.9525H7.11233Z" fill="#EF811F"/>
</svg>
