<svg width="18" height="19" viewBox="0 0 18 19" fill="none" xmlns="http://www.w3.org/2000/svg">
<path d="M17.4727 12.9766L13.5352 11.2891C13.4297 11.2539 13.2891 11.2188 13.1836 11.2188C12.9727 11.2188 12.6914 11.3594 12.5508 11.5352L10.793 13.6797C8.47266 12.5547 5.66016 9.77734 4.57031 7.45703L6.71484 5.69922C6.89062 5.55859 7.03125 5.27734 7.03125 5.03125C7.03125 4.96094 6.99609 4.82031 6.96094 4.71484L5.27344 0.777344C5.13281 0.496094 4.78125 0.285156 4.46484 0.285156C4.42969 0.285156 4.35938 0.285156 4.28906 0.285156L0.632812 1.12891C0.28125 1.19922 0 1.58594 0 1.9375C0 10.9727 7.27734 18.25 16.3125 18.25C16.6641 18.25 17.0508 17.9688 17.1211 17.6172L17.9648 13.9609C17.9648 13.8906 17.9648 13.8203 17.9648 13.7852C17.9648 13.4688 17.7539 13.1172 17.4727 12.9766Z" fill="#EF811F"/>
</svg>
