<svg width="26" height="25" viewBox="0 0 26 25" fill="none" xmlns="http://www.w3.org/2000/svg">
<path d="M24.2859 15.0292C24.2838 15.0271 24.2817 15.025 24.2796 15.0229L22.815 13.6771C22.8598 13.2812 22.8817 12.8865 22.8817 12.5C22.8817 12.1135 22.8598 11.7187 22.815 11.3229L24.2859 9.97083C24.8952 9.39792 25.0359 8.4875 24.6213 7.74687L22.8942 4.75937C22.4838 4.03125 21.5984 3.68542 20.7859 3.93854L18.8879 4.5375C18.2494 4.05521 17.5671 3.65937 16.8525 3.35625L16.4129 1.40521C16.2275 0.578125 15.5077 0 14.6619 0H11.1973C10.3515 0 9.63168 0.578125 9.44627 1.40521L9.00668 3.35625C8.2921 3.65937 7.61085 4.05521 6.97127 4.5375L5.07022 3.9375C4.25877 3.68333 3.37335 4.03125 2.96918 4.75104L1.23272 7.75729C0.823349 8.4875 0.963974 9.39792 1.5796 9.97708L3.04418 11.3229C2.99939 11.7187 2.97647 12.1135 2.97647 12.5C2.97647 12.8865 2.99835 13.2812 3.04314 13.6771L1.57231 15.0292C0.962932 15.6021 0.822307 16.5125 1.23689 17.2531L2.96397 20.2406C3.37335 20.9687 4.25772 21.3125 5.07231 21.0615L6.97022 20.4625C7.60877 20.9448 8.29106 21.3406 9.00564 21.6437L9.44522 23.5948C9.63168 24.4219 10.3515 25 11.1973 25H14.6619C15.5077 25 16.2275 24.4219 16.4129 23.5948L16.8525 21.6427C17.5681 21.3396 18.2494 20.9437 18.8879 20.4615L20.789 21.0615C21.5994 21.3135 22.4848 20.9667 22.89 20.2479L24.6275 17.2427C25.0359 16.5125 24.8952 15.6021 24.2859 15.0292ZM15.0546 17.5948C15.0546 18.2302 14.5338 18.751 13.8879 18.751H11.9713C11.4088 18.751 10.8046 18.3344 10.8046 17.4073V16.8448H15.0546V17.5948ZM15.8983 14.5115C15.4608 14.8656 15.1796 15.324 15.0858 15.8031H10.7838C10.7108 15.3344 10.4504 14.8969 10.0233 14.5635C8.8671 13.6573 8.21085 12.2927 8.2421 10.8135C8.29418 8.33437 10.3671 6.28229 12.8567 6.25104C14.1171 6.21979 15.3254 6.70937 16.2317 7.60521C17.1275 8.48021 17.6171 9.65729 17.6171 10.9073C17.6171 12.3135 16.9931 13.626 15.8983 14.5115Z" fill="#D7D7D7"/>
</svg>
