<svg width="27" height="27" viewBox="0 0 27 27" fill="none" xmlns="http://www.w3.org/2000/svg">
<path d="M17.9934 3.51264C18.9229 3.46438 19.6636 2.70227 19.6636 1.76085C19.6636 0.788326 18.8752 0 17.9027 0H9.09834C8.12581 0 7.33743 0.788326 7.33743 1.76085C7.33743 2.70227 8.07814 3.46438 9.00764 3.51258C8.45793 8.48391 6.45703 8.81139 6.45703 13.8119V24.3587C6.45703 25.8152 7.64187 27 9.09834 27H17.9027C19.3592 27 20.544 25.8152 20.544 24.3587V13.8119C20.544 8.803 18.5444 8.4963 17.9934 3.51264ZM12.9256 10.8847C11.706 10.0716 10.2597 9.76493 8.88672 9.93473C9.04618 9.48259 9.23144 9.03973 9.4457 8.61115C10.1619 7.17778 10.6074 5.22693 10.7784 3.52171H16.2226C16.3936 5.22693 16.8391 7.17778 17.5553 8.61115C17.8538 9.20795 18.0994 9.83138 18.2909 10.4711C17.6456 10.7914 15.5258 12.6182 12.9256 10.8847Z" fill="#D7D7D7"/>
</svg>
