<svg width="25" height="25" viewBox="0 0 25 25" fill="none" xmlns="http://www.w3.org/2000/svg">
<g clip-path="url(#clip10)">
<path d="M15.6247 6.77084C15.0497 6.77084 14.583 6.30418 14.583 5.72918V4.16668H10.4163V5.72918C10.4163 6.30418 9.94967 6.77084 9.37467 6.77084C8.79967 6.77084 8.33301 6.30418 8.33301 5.72918V4.16668C8.33301 3.01772 9.26738 2.08334 10.4163 2.08334H14.583C15.732 2.08334 16.6663 3.01772 16.6663 4.16668V5.72918C16.6663 6.30418 16.1997 6.77084 15.6247 6.77084Z" fill="#D7D7D7"/>
<path d="M13.2396 16.0209C13.0521 16.0938 12.7812 16.1459 12.5 16.1459C12.2187 16.1459 11.9479 16.0938 11.6979 16L0 12.1042V20.0521C0 21.6354 1.28125 22.9167 2.86458 22.9167H22.1354C23.7188 22.9167 25 21.6354 25 20.0521V12.1042L13.2396 16.0209Z" fill="#D7D7D7"/>
<path d="M25 8.07293V10.4583L12.75 14.5417C12.6667 14.5729 12.5833 14.5833 12.5 14.5833C12.4167 14.5833 12.3333 14.5729 12.25 14.5417L0 10.4583V8.07293C0 6.48959 1.28125 5.20834 2.86458 5.20834H22.1354C23.7188 5.20834 25 6.48959 25 8.07293Z" fill="#D7D7D7"/>
</g>
<defs>
<clipPath id="clip10">
<rect width="25" height="25" fill="white"/>
</clipPath>
</defs>
</svg>
