<svg width="17" height="23" viewBox="0 0 17 23" fill="none" xmlns="http://www.w3.org/2000/svg">
<path d="M7.39062 22.3203C7.77734 22.9219 8.67969 22.9219 9.06641 22.3203C15.3398 13.2969 16.5 12.3516 16.5 9C16.5 4.44531 12.8047 0.75 8.25 0.75C3.65234 0.75 0 4.44531 0 9C0 12.3516 1.11719 13.2969 7.39062 22.3203ZM8.25 12.4375C6.31641 12.4375 4.8125 10.9336 4.8125 9C4.8125 7.10938 6.31641 5.5625 8.25 5.5625C10.1406 5.5625 11.6875 7.10938 11.6875 9C11.6875 10.9336 10.1406 12.4375 8.25 12.4375Z" fill="#EF811F"/>
</svg>
