<svg width="6" height="11" viewBox="0 0 6 11" fill="none" xmlns="http://www.w3.org/2000/svg">
<path d="M0.964285 0.202008C0.883928 0.202008 0.793526 0.242187 0.733258 0.302454L0.231026 0.804687C0.170758 0.864954 0.13058 0.955356 0.13058 1.03571C0.13058 1.11607 0.170758 1.20647 0.231026 1.26674L4.17857 5.21428L0.231026 9.16183C0.170758 9.2221 0.13058 9.3125 0.13058 9.39286C0.13058 9.48326 0.170758 9.56362 0.231026 9.62388L0.733259 10.1261C0.793526 10.1864 0.883928 10.2266 0.964285 10.2266C1.04464 10.2266 1.13504 10.1864 1.19531 10.1261L5.87612 5.44531C5.93638 5.38504 5.97656 5.29464 5.97656 5.21428C5.97656 5.13393 5.93638 5.04353 5.87612 4.98326L1.19531 0.302454C1.13504 0.242187 1.04464 0.202008 0.964285 0.202008Z" fill="#676B73"/>
</svg>
