<svg width="22" height="17" viewBox="0 0 22 17" fill="none" xmlns="http://www.w3.org/2000/svg">
<path d="M21.5703 5.95703C20.582 6.73047 19.3359 7.67578 14.9531 10.8555C14.0938 11.5 12.5039 12.918 11 12.918C9.45312 12.918 7.90625 11.5 7.00391 10.8555C2.62109 7.67578 1.375 6.73047 0.386719 5.95703C0.214844 5.82812 0 5.95703 0 6.17188V14.9375C0 16.0977 0.902344 17 2.0625 17H19.9375C21.0547 17 22 16.0977 22 14.9375V6.17188C22 5.95703 21.7422 5.82812 21.5703 5.95703ZM11 11.5C11.9883 11.543 13.4062 10.2539 14.1367 9.73828C19.8516 5.61328 20.2812 5.22656 21.5703 4.19531C21.8281 4.02344 22 3.72266 22 3.37891V2.5625C22 1.44531 21.0547 0.5 19.9375 0.5H2.0625C0.902344 0.5 0 1.44531 0 2.5625V3.37891C0 3.72266 0.128906 4.02344 0.386719 4.19531C1.67578 5.22656 2.10547 5.61328 7.82031 9.73828C8.55078 10.2539 9.96875 11.543 11 11.5Z" fill="#EF811F"/>
</svg>
