<svg width="18" height="15" viewBox="0 0 18 15" fill="none" xmlns="http://www.w3.org/2000/svg">
<path d="M17.0625 6.4375H15.3125V4.6875C15.3125 4.46875 15.0938 4.25 14.875 4.25H14C13.7539 4.25 13.5625 4.46875 13.5625 4.6875V6.4375H11.8125C11.5664 6.4375 11.375 6.65625 11.375 6.875V7.75C11.375 7.99609 11.5664 8.1875 11.8125 8.1875H13.5625V9.9375C13.5625 10.1836 13.7539 10.375 14 10.375H14.875C15.0938 10.375 15.3125 10.1836 15.3125 9.9375V8.1875H17.0625C17.2812 8.1875 17.5 7.99609 17.5 7.75V6.875C17.5 6.65625 17.2812 6.4375 17.0625 6.4375ZM6.125 7.75C8.03906 7.75 9.625 6.19141 9.625 4.25C9.625 2.33594 8.03906 0.75 6.125 0.75C4.18359 0.75 2.625 2.33594 2.625 4.25C2.625 6.19141 4.18359 7.75 6.125 7.75ZM8.55859 8.625H8.09375C7.49219 8.92578 6.83594 9.0625 6.125 9.0625C5.41406 9.0625 4.73047 8.92578 4.12891 8.625H3.66406C1.64062 8.625 0 10.293 0 12.3164V13.4375C0 14.1758 0.574219 14.75 1.3125 14.75H10.9375C11.6484 14.75 12.25 14.1758 12.25 13.4375V12.3164C12.25 10.293 10.582 8.625 8.55859 8.625Z" fill="white"/>
</svg>
